<?xml version="1.0" encoding="utf-8" ?>
<svg xmlns="http://www.w3.org/2000/svg" xmlns:xlink="http://www.w3.org/1999/xlink" width="1024" height="1024">
	<path transform="scale(1.6 1.6)" d="M199.953 93.5114C230.207 92.2345 242.589 112.433 242.765 140.169C261.19 140.629 279.681 140.319 298.113 140.32L397.456 140.315C397.679 125.691 397.754 116.181 408.683 104.92C423.397 89.7593 448.052 89.5219 462.992 104.416C473.963 115.353 475.043 125.491 474.998 140.158C495.614 140.926 521.775 136.042 537.756 151.418C546.208 159.55 549.81 169.317 549.989 180.897C550.366 205.254 549.993 229.675 549.993 254.039L550.037 489.539C550.131 503.65 549.666 514.724 538.915 525.655C524.281 540.534 505.656 537.611 486.719 537.715C456.951 537.385 427.153 537.662 397.382 537.661L137.682 537.697C133.148 537.729 128.457 538.015 123.956 537.447C105.336 535.098 90.3661 517.876 90.2389 499.102L90.3072 188.78C90.3261 152.02 105.992 140.207 141.426 140.294L165.466 140.362C165.103 116.284 173.795 97.4189 199.953 93.5114ZM105.909 239.998C104.922 258.812 105.558 277.913 105.556 296.766L105.525 489.749C105.44 504.072 108.084 520.429 126.211 522.453C132.092 523.11 138.402 522.633 144.323 522.619L487.889 522.623C503.064 522.642 514.266 525.787 526.701 516.218C534.217 508.683 534.974 502.474 534.961 492.123L534.92 278.514C534.92 265.677 535.037 252.852 534.561 240.02L105.909 239.998ZM433.996 108.538C409.001 112.196 412.771 134.802 412.797 153.449C412.823 173.159 411.755 194.897 438.234 194.204C448.064 193.422 456.965 186.155 459.081 176.445C460.515 169.865 460.348 139.023 459.675 130.409C458.622 116.92 447.251 107.761 433.996 108.538ZM201.349 108.86C176.58 111.734 180.926 137.736 180.935 155.661C180.946 176.657 180.755 194.941 207.814 194.026C218.452 191.753 225.285 184.847 226.886 174.199C227.912 167.371 228.086 132.841 226.745 126.527C224.39 115.432 212.724 106.865 201.349 108.86Z"/>
	<path fill="#4AE207" transform="scale(1.6 1.6)" d="M242.55 155.323L377.951 155.308C384.471 155.308 391.109 155.065 397.609 155.543L397.579 157.955C397.401 173.992 396.894 185.977 408.954 198.179C423.664 213.064 448.305 213.377 463.184 198.491C476.055 185.616 475.226 172.149 475.161 155.35C490.252 155.301 514.487 151.936 526.686 161.685C537.631 170.806 534.942 185.026 534.93 197.715C534.922 206.865 535.174 216.095 534.679 225.231C519.789 224.322 504.712 224.821 489.79 224.821L144.922 224.83C131.922 224.83 118.896 225.003 105.901 224.709C105.138 215.405 105.565 205.985 105.544 196.659C105.47 164.997 107.124 155.69 141.521 155.475C149.628 155.189 157.757 155.322 165.868 155.341C165.086 170.416 165.264 186.056 176.554 197.585C191.694 213.046 215.857 213.566 231.25 198.121C243.775 185.554 242.624 171.651 242.55 155.323Z"/>
	<path transform="scale(1.6 1.6)" d="M316.963 263.603L317.772 263.57C378.064 261.482 425.209 311.521 426.897 370.399C428.591 429.53 381.03 477.506 322.422 479.025C266.073 479.988 216.412 436.443 213.558 379.42C210.499 318.311 255.247 266.332 316.963 263.603Z"/>
	<path fill="#F7F700" transform="scale(1.6 1.6)" d="M246.05 317.701C263.5 336.485 267.625 374.386 262.453 398.536C261.491 403.032 253.725 429.461 250.112 431.807L249.04 430.519C223.446 397.383 221.22 352.298 246.05 317.701Z"/>
	<path fill="#F7F700" transform="scale(1.6 1.6)" d="M393.988 317.338C395.463 318.18 396.221 320.098 397.101 321.488C419.85 357.455 414.515 397.804 391.507 431.497C390.202 433.591 385.564 422.384 384.627 420.407C369.284 388.009 372.056 346.023 393.988 317.338Z"/>
	<path fill="#F7F700" transform="scale(1.6 1.6)" d="M317.062 278.885C342.56 278.101 365.902 287.492 383.885 305.223C351.436 342.944 354.658 401.664 378.919 442.85C361.78 455.962 344.624 462.803 322.822 463.968C300.502 464.651 278.458 456.652 261.101 442.693C271.691 428.091 278.965 398.498 279.817 381.332C281.124 355.002 273.386 325.23 255.498 305.355C271.167 289.156 294.911 280.004 317.062 278.885Z"/>
</svg>
